<?xml version="1.0" encoding="utf-8" standalone="no"?>
<!DOCTYPE svg PUBLIC "-//W3C//DTD SVG 1.1//EN"
  "http://www.w3.org/Graphics/SVG/1.1/DTD/svg11.dtd">
<svg xmlns:xlink="http://www.w3.org/1999/xlink" width="647.441203pt" height="337.439766pt" viewBox="0 0 647.441203 337.439766" xmlns="http://www.w3.org/2000/svg" version="1.1">
 <metadata>
  <rdf:RDF xmlns:dc="http://purl.org/dc/elements/1.1/" xmlns:cc="http://creativecommons.org/ns#" xmlns:rdf="http://www.w3.org/1999/02/22-rdf-syntax-ns#">
   <cc:Work>
    <dc:type rdf:resource="http://purl.org/dc/dcmitype/StillImage"/>
    <dc:date>2026-08-18T22:52:41.373309</dc:date>
    <dc:format>image/svg+xml</dc:format>
    <dc:creator>
     <cc:Agent>
      <dc:title>Matplotlib v3.10.9, https://matplotlib.org/</dc:title>
     </cc:Agent>
    </dc:creator>
   </cc:Work>
  </rdf:RDF>
 </metadata>
 <defs>
  <style type="text/css">*{stroke-linejoin: round; stroke-linecap: butt}</style>
 </defs>
 <g id="figure_1">
  <g id="patch_1">
   <path d="M 0 337.439766 
L 647.441203 337.439766 
L 647.441203 0 
L 0 0 
z
" style="fill: #ffffff"/>
  </g>
  <g id="axes_1">
   <g id="patch_2">
    <path d="M 315.98496 97.8536 
L 435.16512 97.8536 
L 435.16512 84.6184 
L 315.98496 84.6184 
L 315.98496 97.8536 
z
" clip-path="url(#p5ab8bed0e4)" style="fill: none; stroke: #cccccc; stroke-width: 0.6; stroke-linejoin: miter"/>
   </g>
   <g id="patch_3">
    <path d="M 315.98496 97.8536 
L 435.16512 97.8536 
L 435.16512 84.6184 
L 315.98496 84.6184 
z
" clip-path="url(#p5ab8bed0e4)" style="fill: #4c4c4c"/>
   </g>
   <g id="patch_4">
    <path d="M 315.98496 127.9336 
L 435.16512 127.9336 
L 435.16512 114.6984 
L 315.98496 114.6984 
L 315.98496 127.9336 
z
" clip-path="url(#p5ab8bed0e4)" style="fill: none; stroke: #cccccc; stroke-width: 0.6; stroke-linejoin: miter"/>
   </g>
   <g id="patch_5">
    <path d="M 315.98496 127.9336 
L 395.4384 127.9336 
L 395.4384 114.6984 
L 315.98496 114.6984 
z
" clip-path="url(#p5ab8bed0e4)" style="fill: #4c4c4c"/>
   </g>
   <g id="patch_6">
    <path d="M 315.98496 158.0136 
L 435.16512 158.0136 
L 435.16512 144.7784 
L 315.98496 144.7784 
L 315.98496 158.0136 
z
" clip-path="url(#p5ab8bed0e4)" style="fill: none; stroke: #cccccc; stroke-width: 0.6; stroke-linejoin: miter"/>
   </g>
   <g id="patch_7">
    <path d="M 315.98496 158.0136 
L 368.95392 158.0136 
L 368.95392 144.7784 
L 315.98496 144.7784 
z
" clip-path="url(#p5ab8bed0e4)" style="fill: #4c4c4c"/>
   </g>
   <g id="patch_8">
    <path d="M 315.98496 188.0936 
L 435.16512 188.0936 
L 435.16512 174.8584 
L 315.98496 174.8584 
L 315.98496 188.0936 
z
" clip-path="url(#p5ab8bed0e4)" style="fill: none; stroke: #cccccc; stroke-width: 0.6; stroke-linejoin: miter"/>
   </g>
   <g id="patch_9">
    <path d="M 315.98496 188.0936 
L 421.92288 188.0936 
L 421.92288 174.8584 
L 315.98496 174.8584 
z
" clip-path="url(#p5ab8bed0e4)" style="fill: #4c4c4c"/>
   </g>
   <g id="patch_10">
    <path d="M 315.98496 218.1736 
L 435.16512 218.1736 
L 435.16512 204.9384 
L 315.98496 204.9384 
L 315.98496 218.1736 
z
" clip-path="url(#p5ab8bed0e4)" style="fill: none; stroke: #cccccc; stroke-width: 0.6; stroke-linejoin: miter"/>
   </g>
   <g id="patch_11">
    <path d="M 315.98496 218.1736 
L 408.68064 218.1736 
L 408.68064 204.9384 
L 315.98496 204.9384 
z
" clip-path="url(#p5ab8bed0e4)" style="fill: #4c4c4c"/>
   </g>
   <g id="patch_12">
    <path d="M 315.98496 248.2536 
L 435.16512 248.2536 
L 435.16512 235.0184 
L 315.98496 235.0184 
L 315.98496 248.2536 
z
" clip-path="url(#p5ab8bed0e4)" style="fill: none; stroke: #cccccc; stroke-width: 0.6; stroke-linejoin: miter"/>
   </g>
   <g id="patch_13">
    <path d="M 315.98496 248.2536 
L 435.16512 248.2536 
L 435.16512 235.0184 
L 315.98496 235.0184 
z
" clip-path="url(#p5ab8bed0e4)" style="fill: #4c4c4c"/>
   </g>
   <g id="patch_14">
    <path d="M 315.98496 278.3336 
L 435.16512 278.3336 
L 435.16512 265.0984 
L 315.98496 265.0984 
L 315.98496 278.3336 
z
" clip-path="url(#p5ab8bed0e4)" style="fill: none; stroke: #cccccc; stroke-width: 0.6; stroke-linejoin: miter"/>
   </g>
   <g id="patch_15">
    <path d="M 315.98496 278.3336 
L 395.4384 278.3336 
L 395.4384 265.0984 
L 315.98496 265.0984 
z
" clip-path="url(#p5ab8bed0e4)" style="fill: #4c4c4c"/>
   </g>
   <g id="patch_16">
    <path d="M 315.98496 308.4136 
L 435.16512 308.4136 
L 435.16512 295.1784 
L 315.98496 295.1784 
L 315.98496 308.4136 
z
" clip-path="url(#p5ab8bed0e4)" style="fill: none; stroke: #cccccc; stroke-width: 0.6; stroke-linejoin: miter"/>
   </g>
   <g id="line2d_1">
    <defs>
     <path id="ma16ecec9af" d="M 0 3.5 
C 0.928211 3.5 1.81853 3.131218 2.474874 2.474874 
C 3.131218 1.81853 3.5 0.928211 3.5 0 
C 3.5 -0.928211 3.131218 -1.81853 2.474874 -2.474874 
C 1.81853 -3.131218 0.928211 -3.5 0 -3.5 
C -0.928211 -3.5 -1.81853 -3.131218 -2.474874 -2.474874 
C -3.131218 -1.81853 -3.5 -0.928211 -3.5 0 
C -3.5 0.928211 -3.131218 1.81853 -2.474874 2.474874 
C -1.81853 3.131218 -0.928211 3.5 0 3.5 
z
" style="stroke: #333333"/>
    </defs>
    <g clip-path="url(#p5ab8bed0e4)">
     <use xlink:href="#ma16ecec9af" x="172.42704" y="91.236" style="fill: #4c4c4c; stroke: #333333"/>
    </g>
   </g>
   <g id="line2d_2">
    <defs>
     <path id="mf5b049af0d" d="M 0 3.5 
C 0.928211 3.5 1.81853 3.131218 2.474874 2.474874 
C 3.131218 1.81853 3.5 0.928211 3.5 0 
C 3.5 -0.928211 3.131218 -1.81853 2.474874 -2.474874 
C 1.81853 -3.131218 0.928211 -3.5 0 -3.5 
C -0.928211 -3.5 -1.81853 -3.131218 -2.474874 -2.474874 
C -3.131218 -1.81853 -3.5 -0.928211 -3.5 0 
C -3.5 0.928211 -3.131218 1.81853 -2.474874 2.474874 
C -1.81853 3.131218 -0.928211 3.5 0 3.5 
z
" style="stroke: #333333"/>
    </defs>
    <g clip-path="url(#p5ab8bed0e4)">
     <use xlink:href="#mf5b049af0d" x="172.42704" y="121.316" style="fill: #ffffff; stroke: #333333"/>
    </g>
   </g>
   <g id="line2d_3">
    <g clip-path="url(#p5ab8bed0e4)">
     <use xlink:href="#ma16ecec9af" x="172.42704" y="151.396" style="fill: #4c4c4c; stroke: #333333"/>
    </g>
   </g>
   <g id="line2d_4">
    <g clip-path="url(#p5ab8bed0e4)">
     <use xlink:href="#ma16ecec9af" x="172.42704" y="181.476" style="fill: #4c4c4c; stroke: #333333"/>
    </g>
   </g>
   <g id="line2d_5">
    <g clip-path="url(#p5ab8bed0e4)">
     <use xlink:href="#ma16ecec9af" x="172.42704" y="211.556" style="fill: #4c4c4c; stroke: #333333"/>
    </g>
   </g>
   <g id="line2d_6">
    <g clip-path="url(#p5ab8bed0e4)">
     <use xlink:href="#mf5b049af0d" x="172.42704" y="241.636" style="fill: #ffffff; stroke: #333333"/>
    </g>
   </g>
   <g id="line2d_7">
    <g clip-path="url(#p5ab8bed0e4)">
     <use xlink:href="#ma16ecec9af" x="172.42704" y="271.716" style="fill: #4c4c4c; stroke: #333333"/>
    </g>
   </g>
   <g id="line2d_8">
    <g clip-path="url(#p5ab8bed0e4)">
     <use xlink:href="#mf5b049af0d" x="172.42704" y="301.796" style="fill: #ffffff; stroke: #333333"/>
    </g>
   </g>
   <g id="text_1">
    <text style="font-weight: 700; font-size: 8px; font-family: 'DejaVu Sans'; text-anchor: start; fill: #333333" x="12.61728" y="57.5464" transform="rotate(-0 12.61728 57.5464)">Scenario (source · time · reach)</text>
   </g>
   <g id="text_2">
    <text style="font-weight: 700; font-size: 8px; font-family: 'DejaVu Sans'; text-anchor: start; fill: #333333" x="170.260128" y="57.5464" transform="rotate(-0 170.260128 57.5464)">Nearest-open baseline pick</text>
   </g>
   <g id="text_3">
    <text style="font-size: 6.4px; font-family: 'DejaVu Sans'; text-anchor: start; fill: #666666" x="170.260128" y="67.172" transform="rotate(-0 170.260128 67.172)">● passes screening · ○ removed by screening</text>
   </g>
   <g id="text_4">
    <text style="font-weight: 700; font-size: 8px; font-family: 'DejaVu Sans'; text-anchor: start; fill: #333333" x="315.98496" y="57.5464" transform="rotate(-0 315.98496 57.5464)">Surviving alternatives (0–9)</text>
   </g>
   <g id="text_5">
    <text style="font-weight: 700; font-size: 8px; font-family: 'DejaVu Sans'; text-anchor: middle; fill: #333333" x="505.58976" y="57.5464" transform="rotate(-0 505.58976 57.5464)">Removed</text>
   </g>
   <g id="text_6">
    <text style="font-size: 6.4px; font-family: 'DejaVu Sans'; text-anchor: middle; fill: #666666" x="505.58976" y="67.172" transform="rotate(-0 505.58976 67.172)">(thermal/evid.)</text>
   </g>
   <g id="text_7">
    <text style="font-weight: 700; font-size: 7.4px; font-family: 'DejaVu Sans'; text-anchor: start; fill: #333333" x="12.61728" y="90.269937" transform="rotate(-0 12.61728 90.269937)">S1  Fuente de Neptuno</text>
   </g>
   <g id="text_8">
    <text style="font-size: 6.6px; font-family: 'DejaVu Sans'; text-anchor: start; fill: #666666" x="12.61728" y="100.276387" transform="rotate(-0 12.61728 100.276387)">15:00 · 800 m</text>
   </g>
   <g id="text_9">
    <text style="font-size: 7.1px; font-family: 'DejaVu Sans'; text-anchor: start; fill: #333333" x="180.55296" y="90.187156" transform="rotate(-0 180.55296 90.187156)">Museo Thyssen-Bornemi…</text>
   </g>
   <g id="text_10">
    <text style="font-size: 6.3px; font-family: 'DejaVu Sans'; text-anchor: start; fill: #666666" x="180.55296" y="100.193606" transform="rotate(-0 180.55296 100.193606)">passes screening</text>
   </g>
   <g id="text_11">
    <text style="font-size: 7.2px; font-family: 'DejaVu Sans'; text-anchor: start; fill: #333333" x="439.498944" y="93.22275" transform="rotate(-0 439.498944 93.22275)">9</text>
   </g>
   <g id="text_12">
    <text style="font-size: 7.6px; font-family: 'DejaVu Sans'; text-anchor: middle; fill: #333333" x="505.58976" y="93.333125" transform="rotate(-0 505.58976 93.333125)">2</text>
   </g>
   <g id="text_13">
    <text style="font-weight: 700; font-size: 7.4px; font-family: 'DejaVu Sans'; text-anchor: start; fill: #333333" x="12.61728" y="120.349937" transform="rotate(-0 12.61728 120.349937)">S2  Fuente de Cibeles</text>
   </g>
   <g id="text_14">
    <text style="font-size: 6.6px; font-family: 'DejaVu Sans'; text-anchor: start; fill: #666666" x="12.61728" y="130.356387" transform="rotate(-0 12.61728 130.356387)">15:00 · 800 m</text>
   </g>
   <g id="text_15">
    <text style="font-size: 7.1px; font-family: 'DejaVu Sans'; text-anchor: start; fill: #333333" x="180.55296" y="120.267156" transform="rotate(-0 180.55296 120.267156)">Palacio de Cibeles - …</text>
   </g>
   <g id="text_16">
    <text style="font-size: 6.3px; font-family: 'DejaVu Sans'; text-anchor: start; fill: #0072b2" x="180.55296" y="130.185997" transform="rotate(-0 180.55296 130.185997)">removed · OUTDOOR_EXPOSURE_TOO_HIGH</text>
   </g>
   <g id="text_17">
    <text style="font-size: 7.2px; font-family: 'DejaVu Sans'; text-anchor: start; fill: #333333" x="399.772224" y="123.30275" transform="rotate(-0 399.772224 123.30275)">6</text>
   </g>
   <g id="text_18">
    <text style="font-size: 7.6px; font-family: 'DejaVu Sans'; text-anchor: middle; fill: #333333" x="505.58976" y="123.413125" transform="rotate(-0 505.58976 123.413125)">3</text>
   </g>
   <g id="text_19">
    <text style="font-weight: 700; font-size: 7.4px; font-family: 'DejaVu Sans'; text-anchor: start; fill: #333333" x="12.61728" y="150.429937" transform="rotate(-0 12.61728 150.429937)">S3  Puerta de Alcalá</text>
   </g>
   <g id="text_20">
    <text style="font-size: 6.6px; font-family: 'DejaVu Sans'; text-anchor: start; fill: #666666" x="12.61728" y="160.436387" transform="rotate(-0 12.61728 160.436387)">18:00 · 800 m</text>
   </g>
   <g id="text_21">
    <text style="font-size: 7.1px; font-family: 'DejaVu Sans'; text-anchor: start; fill: #333333" x="180.55296" y="150.347156" transform="rotate(-0 180.55296 150.347156)">Retiro</text>
   </g>
   <g id="text_22">
    <text style="font-size: 6.3px; font-family: 'DejaVu Sans'; text-anchor: start; fill: #666666" x="180.55296" y="160.353606" transform="rotate(-0 180.55296 160.353606)">passes screening</text>
   </g>
   <g id="text_23">
    <text style="font-size: 7.2px; font-family: 'DejaVu Sans'; text-anchor: start; fill: #333333" x="373.287744" y="153.38275" transform="rotate(-0 373.287744 153.38275)">4</text>
   </g>
   <g id="text_24">
    <text style="font-size: 7.6px; font-family: 'DejaVu Sans'; text-anchor: middle; fill: #333333" x="505.58976" y="153.493125" transform="rotate(-0 505.58976 153.493125)">6</text>
   </g>
   <g id="text_25">
    <text style="font-weight: 700; font-size: 7.4px; font-family: 'DejaVu Sans'; text-anchor: start; fill: #333333" x="12.61728" y="180.509937" transform="rotate(-0 12.61728 180.509937)">S4  Monumento a Alfonso XII</text>
   </g>
   <g id="text_26">
    <text style="font-size: 6.6px; font-family: 'DejaVu Sans'; text-anchor: start; fill: #666666" x="12.61728" y="190.516387" transform="rotate(-0 12.61728 190.516387)">18:00 · 800 m</text>
   </g>
   <g id="text_27">
    <text style="font-size: 7.1px; font-family: 'DejaVu Sans'; text-anchor: start; fill: #333333" x="180.55296" y="180.427156" transform="rotate(-0 180.55296 180.427156)">Parque del Retiro</text>
   </g>
   <g id="text_28">
    <text style="font-size: 6.3px; font-family: 'DejaVu Sans'; text-anchor: start; fill: #666666" x="180.55296" y="190.433606" transform="rotate(-0 180.55296 190.433606)">passes screening</text>
   </g>
   <g id="text_29">
    <text style="font-size: 7.2px; font-family: 'DejaVu Sans'; text-anchor: start; fill: #333333" x="426.256704" y="183.46275" transform="rotate(-0 426.256704 183.46275)">8</text>
   </g>
   <g id="text_30">
    <text style="font-size: 7.6px; font-family: 'DejaVu Sans'; text-anchor: middle; fill: #333333" x="505.58976" y="183.573125" transform="rotate(-0 505.58976 183.573125)">1</text>
   </g>
   <g id="text_31">
    <text style="font-weight: 700; font-size: 7.4px; font-family: 'DejaVu Sans'; text-anchor: start; fill: #333333" x="12.61728" y="210.589937" transform="rotate(-0 12.61728 210.589937)">S5  Real Observatorio de Ma…</text>
   </g>
   <g id="text_32">
    <text style="font-size: 6.6px; font-family: 'DejaVu Sans'; text-anchor: start; fill: #666666" x="12.61728" y="220.596387" transform="rotate(-0 12.61728 220.596387)">15:00 · 800 m</text>
   </g>
   <g id="text_33">
    <text style="font-size: 7.1px; font-family: 'DejaVu Sans'; text-anchor: start; fill: #333333" x="180.55296" y="210.507156" transform="rotate(-0 180.55296 210.507156)">Estación del Arte</text>
   </g>
   <g id="text_34">
    <text style="font-size: 6.3px; font-family: 'DejaVu Sans'; text-anchor: start; fill: #666666" x="180.55296" y="220.513606" transform="rotate(-0 180.55296 220.513606)">passes screening</text>
   </g>
   <g id="text_35">
    <text style="font-size: 7.2px; font-family: 'DejaVu Sans'; text-anchor: start; fill: #333333" x="413.014464" y="213.54275" transform="rotate(-0 413.014464 213.54275)">7</text>
   </g>
   <g id="text_36">
    <text style="font-size: 7.6px; font-family: 'DejaVu Sans'; text-anchor: middle; fill: #333333" x="505.58976" y="213.653125" transform="rotate(-0 505.58976 213.653125)">3</text>
   </g>
   <g id="text_37">
    <text style="font-weight: 700; font-size: 7.4px; font-family: 'DejaVu Sans'; text-anchor: start; fill: #333333" x="12.61728" y="240.641031" transform="rotate(-0 12.61728 240.641031)">S6  Estatua de Goya</text>
   </g>
   <g id="text_38">
    <text style="font-size: 6.6px; font-family: 'DejaVu Sans'; text-anchor: start; fill: #666666" x="12.61728" y="250.676387" transform="rotate(-0 12.61728 250.676387)">18:00 · 800 m</text>
   </g>
   <g id="text_39">
    <text style="font-size: 7.1px; font-family: 'DejaVu Sans'; text-anchor: start; fill: #333333" x="180.55296" y="240.587156" transform="rotate(-0 180.55296 240.587156)">Fuente de Neptuno</text>
   </g>
   <g id="text_40">
    <text style="font-size: 6.3px; font-family: 'DejaVu Sans'; text-anchor: start; fill: #0072b2" x="180.55296" y="250.505997" transform="rotate(-0 180.55296 250.505997)">removed · OUTDOOR_EXPOSURE_TOO_HIGH</text>
   </g>
   <g id="text_41">
    <text style="font-size: 7.2px; font-family: 'DejaVu Sans'; text-anchor: start; fill: #333333" x="439.498944" y="243.62275" transform="rotate(-0 439.498944 243.62275)">9</text>
   </g>
   <g id="text_42">
    <text style="font-size: 7.6px; font-family: 'DejaVu Sans'; text-anchor: middle; fill: #333333" x="505.58976" y="243.733125" transform="rotate(-0 505.58976 243.733125)">2</text>
   </g>
   <g id="text_43">
    <text style="font-weight: 700; font-size: 7.4px; font-family: 'DejaVu Sans'; text-anchor: start; fill: #333333" x="12.61728" y="270.749937" transform="rotate(-0 12.61728 270.749937)">S7  La Rosaleda</text>
   </g>
   <g id="text_44">
    <text style="font-size: 6.6px; font-family: 'DejaVu Sans'; text-anchor: start; fill: #666666" x="12.61728" y="280.756387" transform="rotate(-0 12.61728 280.756387)">18:00 · 800 m</text>
   </g>
   <g id="text_45">
    <text style="font-size: 7.1px; font-family: 'DejaVu Sans'; text-anchor: start; fill: #333333" x="180.55296" y="270.667156" transform="rotate(-0 180.55296 270.667156)">Palacio de Cristal</text>
   </g>
   <g id="text_46">
    <text style="font-size: 6.3px; font-family: 'DejaVu Sans'; text-anchor: start; fill: #666666" x="180.55296" y="280.673606" transform="rotate(-0 180.55296 280.673606)">passes screening</text>
   </g>
   <g id="text_47">
    <text style="font-size: 7.2px; font-family: 'DejaVu Sans'; text-anchor: start; fill: #333333" x="399.772224" y="273.70275" transform="rotate(-0 399.772224 273.70275)">6</text>
   </g>
   <g id="text_48">
    <text style="font-size: 7.6px; font-family: 'DejaVu Sans'; text-anchor: middle; fill: #333333" x="505.58976" y="273.813125" transform="rotate(-0 505.58976 273.813125)">0</text>
   </g>
   <g id="text_49">
    <text style="font-weight: 700; font-size: 7.4px; font-family: 'DejaVu Sans'; text-anchor: start; fill: #333333" x="12.61728" y="300.829937" transform="rotate(-0 12.61728 300.829937)">S8  Parque del Retiro</text>
   </g>
   <g id="text_50">
    <text style="font-size: 6.6px; font-family: 'DejaVu Sans'; text-anchor: start; fill: #666666" x="12.61728" y="310.836387" transform="rotate(-0 12.61728 310.836387)">15:00 · 500 m</text>
   </g>
   <g id="text_51">
    <text style="font-size: 7.1px; font-family: 'DejaVu Sans'; text-anchor: start; fill: #333333" x="180.55296" y="300.747156" transform="rotate(-0 180.55296 300.747156)">Palacio de Cristal</text>
   </g>
   <g id="text_52">
    <text style="font-size: 6.3px; font-family: 'DejaVu Sans'; text-anchor: start; fill: #0072b2" x="180.55296" y="310.665997" transform="rotate(-0 180.55296 310.665997)">removed · OUTDOOR_EXPOSURE_TOO_HIGH</text>
   </g>
   <g id="text_53">
    <text style="font-weight: 700; font-size: 6.6px; font-family: 'DejaVu Sans'; text-anchor: start; fill: #0072b2" x="318.151872" y="303.525406" transform="rotate(-0 318.151872 303.525406)">0 of 26 survive → NO_DEFENSIBLE_ALTERNATIVE</text>
   </g>
   <g id="text_54">
    <text style="font-size: 7.6px; font-family: 'DejaVu Sans'; text-anchor: middle; fill: #333333" x="505.58976" y="303.893125" transform="rotate(-0 505.58976 303.893125)">6</text>
   </g>
   <g id="patch_17">
    <path d="M 9.691949 315.6328 
L 539.935315 315.6328 
Q 540.368698 315.6328 540.368698 313.2264 
L 540.368698 289.764 
Q 540.368698 287.3576 539.935315 287.3576 
L 9.691949 287.3576 
Q 9.258566 287.3576 9.258566 289.764 
L 9.258566 313.2264 
Q 9.258566 315.6328 9.691949 315.6328 
L 9.691949 315.6328 
z
" clip-path="url(#p5ab8bed0e4)" style="fill: none; stroke: #0072b2; stroke-width: 1.6; stroke-linejoin: miter"/>
   </g>
  </g>
  <g id="text_55">
   <text style="font-size: 7.5px; font-family: 'DejaVu Sans'; text-anchor: start; fill: #333333" x="15.408" y="328.68" transform="rotate(-0 15.408 328.68)">Candidate set changed in 7 of 8 scenarios   ·   nearest-open pick removed by screening in 3 of 8   ·   23 open, in-radius options removed on thermal/evidence grounds</text>
  </g>
  <g id="text_56">
   <text style="font-weight: 700; font-size: 10.5px; font-family: 'DejaVu Sans'; text-anchor: start; fill: #333333" x="15.408" y="15.178359" transform="rotate(-0 15.408 15.178359)">Heat-aware screening changes the option set a nearest-open tool returns</text>
  </g>
  <g id="text_57">
   <text style="font-size: 7.3px; font-family: 'DejaVu Sans'; text-anchor: start; fill: #555555" x="15.408" y="30.888" transform="rotate(-0 15.408 30.888)">S8 (outlined) returns no defensible alternative under the 500 m reach — an architectural outcome, not a ranked pick</text>
  </g>
 </g>
 <defs>
  <clipPath id="p5ab8bed0e4">
   <rect x="7.2" y="46.116" width="541.728" height="270.72"/>
  </clipPath>
 </defs>
</svg>
